<mxfile host="app.diagrams.net" modified="2023-06-08T20:18:38.713Z" agent="Mozilla/5.0 (Windows NT 10.0; Win64; x64) AppleWebKit/537.36 (KHTML, like Gecko) Chrome/114.0.0.0 Safari/537.36" etag="faYE119WI-mjPyKdgdg8" version="21.3.8" type="device">
  <diagram name="Page-1" id="ARbJb2AJPyRqY-QpZc6R">
    <mxGraphModel dx="1687" dy="832" grid="1" gridSize="10" guides="1" tooltips="1" connect="1" arrows="1" fold="1" page="1" pageScale="1" pageWidth="850" pageHeight="1100" math="0" shadow="0">
      <root>
        <mxCell id="0" />
        <mxCell id="1" parent="0" />
        <mxCell id="y9hrB7B8DbRKpL7P-gth-2" value="" style="rounded=0;whiteSpace=wrap;html=1;" parent="1" vertex="1">
          <mxGeometry width="240" height="930" as="geometry" />
        </mxCell>
        <mxCell id="y9hrB7B8DbRKpL7P-gth-3" value="" style="rounded=0;whiteSpace=wrap;html=1;" parent="1" vertex="1">
          <mxGeometry x="240" width="240" height="930" as="geometry" />
        </mxCell>
        <mxCell id="y9hrB7B8DbRKpL7P-gth-4" value="" style="rounded=0;whiteSpace=wrap;html=1;" parent="1" vertex="1">
          <mxGeometry x="480" width="240" height="930" as="geometry" />
        </mxCell>
        <mxCell id="y9hrB7B8DbRKpL7P-gth-5" value="Guest 2" style="text;html=1;strokeColor=none;fillColor=none;align=center;verticalAlign=middle;whiteSpace=wrap;rounded=0;" parent="1" vertex="1">
          <mxGeometry x="70" y="10" width="60" height="30" as="geometry" />
        </mxCell>
        <mxCell id="y9hrB7B8DbRKpL7P-gth-6" value="Guide" style="text;html=1;strokeColor=none;fillColor=none;align=center;verticalAlign=middle;whiteSpace=wrap;rounded=0;" parent="1" vertex="1">
          <mxGeometry x="570" y="10" width="60" height="30" as="geometry" />
        </mxCell>
        <mxCell id="y9hrB7B8DbRKpL7P-gth-7" value="System" style="text;html=1;strokeColor=none;fillColor=none;align=center;verticalAlign=middle;whiteSpace=wrap;rounded=0;" parent="1" vertex="1">
          <mxGeometry x="330" y="10" width="60" height="30" as="geometry" />
        </mxCell>
        <mxCell id="y9hrB7B8DbRKpL7P-gth-8" value="" style="ellipse;html=1;shape=startState;fillColor=#000000;strokeColor=#ff0000;" parent="1" vertex="1">
          <mxGeometry x="85" y="50" width="30" height="30" as="geometry" />
        </mxCell>
        <mxCell id="y9hrB7B8DbRKpL7P-gth-9" value="" style="edgeStyle=orthogonalEdgeStyle;html=1;verticalAlign=bottom;endArrow=open;endSize=8;strokeColor=#ff0000;rounded=0;" parent="1" source="y9hrB7B8DbRKpL7P-gth-8" edge="1">
          <mxGeometry relative="1" as="geometry">
            <mxPoint x="100" y="140" as="targetPoint" />
          </mxGeometry>
        </mxCell>
        <mxCell id="y9hrB7B8DbRKpL7P-gth-10" value="" style="rounded=1;whiteSpace=wrap;html=1;" parent="1" vertex="1">
          <mxGeometry x="40" y="140" width="120" height="60" as="geometry" />
        </mxCell>
        <mxCell id="y9hrB7B8DbRKpL7P-gth-11" value="Create complex tour request" style="text;html=1;strokeColor=none;fillColor=none;align=center;verticalAlign=middle;whiteSpace=wrap;rounded=0;" parent="1" vertex="1">
          <mxGeometry x="60" y="155" width="80" height="30" as="geometry" />
        </mxCell>
        <mxCell id="y9hrB7B8DbRKpL7P-gth-12" value="Check guide&lt;br&gt;availability&amp;nbsp;" style="rounded=1;whiteSpace=wrap;html=1;" parent="1" vertex="1">
          <mxGeometry x="300" y="140" width="120" height="60" as="geometry" />
        </mxCell>
        <mxCell id="y9hrB7B8DbRKpL7P-gth-13" value="" style="html=1;verticalAlign=bottom;endArrow=block;edgeStyle=elbowEdgeStyle;elbow=vertical;curved=0;rounded=0;entryX=0;entryY=0.5;entryDx=0;entryDy=0;" parent="1" target="y9hrB7B8DbRKpL7P-gth-12" edge="1">
          <mxGeometry width="80" relative="1" as="geometry">
            <mxPoint x="160" y="170" as="sourcePoint" />
            <mxPoint x="240" y="170" as="targetPoint" />
          </mxGeometry>
        </mxCell>
        <mxCell id="y9hrB7B8DbRKpL7P-gth-15" value="" style="html=1;verticalAlign=bottom;endArrow=block;edgeStyle=elbowEdgeStyle;elbow=vertical;curved=0;rounded=0;entryX=0.5;entryY=0;entryDx=0;entryDy=0;exitX=0.5;exitY=1;exitDx=0;exitDy=0;" parent="1" source="y9hrB7B8DbRKpL7P-gth-12" target="y9hrB7B8DbRKpL7P-gth-16" edge="1">
          <mxGeometry width="80" relative="1" as="geometry">
            <mxPoint x="420" y="170" as="sourcePoint" />
            <mxPoint x="540" y="170" as="targetPoint" />
            <Array as="points" />
          </mxGeometry>
        </mxCell>
        <mxCell id="y9hrB7B8DbRKpL7P-gth-16" value="" style="rhombus;whiteSpace=wrap;html=1;" parent="1" vertex="1">
          <mxGeometry x="320" y="290" width="80" height="80" as="geometry" />
        </mxCell>
        <mxCell id="y9hrB7B8DbRKpL7P-gth-18" value="Is free?" style="text;html=1;strokeColor=none;fillColor=none;align=center;verticalAlign=middle;whiteSpace=wrap;rounded=0;" parent="1" vertex="1">
          <mxGeometry x="330" y="315" width="60" height="30" as="geometry" />
        </mxCell>
        <mxCell id="y9hrB7B8DbRKpL7P-gth-19" value="Show available dates" style="rounded=1;whiteSpace=wrap;html=1;" parent="1" vertex="1">
          <mxGeometry x="300" y="640" width="120" height="60" as="geometry" />
        </mxCell>
        <mxCell id="y9hrB7B8DbRKpL7P-gth-20" value="" style="html=1;verticalAlign=bottom;endArrow=block;edgeStyle=elbowEdgeStyle;elbow=vertical;curved=0;rounded=0;exitX=0.5;exitY=1;exitDx=0;exitDy=0;entryX=0.5;entryY=0;entryDx=0;entryDy=0;" parent="1" source="y9hrB7B8DbRKpL7P-gth-16" target="3zaD9dMvkfQn3Uvn-lBQ-4" edge="1">
          <mxGeometry width="80" relative="1" as="geometry">
            <mxPoint x="360" y="390" as="sourcePoint" />
            <mxPoint x="440" y="390" as="targetPoint" />
          </mxGeometry>
        </mxCell>
        <mxCell id="y9hrB7B8DbRKpL7P-gth-21" value="Yes" style="text;html=1;strokeColor=none;fillColor=none;align=center;verticalAlign=middle;whiteSpace=wrap;rounded=0;" parent="1" vertex="1">
          <mxGeometry x="350" y="380" width="60" height="30" as="geometry" />
        </mxCell>
        <mxCell id="y9hrB7B8DbRKpL7P-gth-29" value="Choose date" style="rounded=1;whiteSpace=wrap;html=1;" parent="1" vertex="1">
          <mxGeometry x="550" y="640" width="120" height="60" as="geometry" />
        </mxCell>
        <mxCell id="y9hrB7B8DbRKpL7P-gth-30" value="" style="html=1;verticalAlign=bottom;endArrow=block;edgeStyle=elbowEdgeStyle;elbow=vertical;curved=0;rounded=0;entryX=0;entryY=0.5;entryDx=0;entryDy=0;exitX=1;exitY=0.5;exitDx=0;exitDy=0;" parent="1" source="y9hrB7B8DbRKpL7P-gth-19" target="y9hrB7B8DbRKpL7P-gth-29" edge="1">
          <mxGeometry width="80" relative="1" as="geometry">
            <mxPoint x="430" y="469.5" as="sourcePoint" />
            <mxPoint x="510" y="469.5" as="targetPoint" />
            <Array as="points">
              <mxPoint x="470" y="670" />
              <mxPoint x="470" y="730" />
            </Array>
          </mxGeometry>
        </mxCell>
        <mxCell id="y9hrB7B8DbRKpL7P-gth-31" value="Saving data to memory" style="rounded=1;whiteSpace=wrap;html=1;" parent="1" vertex="1">
          <mxGeometry x="300" y="790" width="120" height="60" as="geometry" />
        </mxCell>
        <mxCell id="y9hrB7B8DbRKpL7P-gth-33" value="" style="html=1;verticalAlign=bottom;endArrow=block;edgeStyle=elbowEdgeStyle;elbow=vertical;curved=0;rounded=0;exitX=0;exitY=0.5;exitDx=0;exitDy=0;" parent="1" source="y9hrB7B8DbRKpL7P-gth-31" target="y9hrB7B8DbRKpL7P-gth-34" edge="1">
          <mxGeometry width="80" relative="1" as="geometry">
            <mxPoint x="110" y="610" as="sourcePoint" />
            <mxPoint x="190" y="610" as="targetPoint" />
            <Array as="points">
              <mxPoint x="250" y="830" />
              <mxPoint x="220" y="820" />
              <mxPoint x="190" y="780" />
              <mxPoint x="280" y="610" />
            </Array>
          </mxGeometry>
        </mxCell>
        <mxCell id="y9hrB7B8DbRKpL7P-gth-34" value="Display complex tour request" style="rounded=1;whiteSpace=wrap;html=1;" parent="1" vertex="1">
          <mxGeometry x="50" y="790" width="120" height="60" as="geometry" />
        </mxCell>
        <mxCell id="y9hrB7B8DbRKpL7P-gth-35" value="" style="ellipse;html=1;shape=endState;fillColor=#000000;strokeColor=#ff0000;" parent="1" vertex="1">
          <mxGeometry x="95" y="890" width="30" height="30" as="geometry" />
        </mxCell>
        <mxCell id="y9hrB7B8DbRKpL7P-gth-36" value="" style="html=1;verticalAlign=bottom;endArrow=block;edgeStyle=elbowEdgeStyle;elbow=vertical;curved=0;rounded=0;exitX=0.5;exitY=1;exitDx=0;exitDy=0;entryX=0.5;entryY=0;entryDx=0;entryDy=0;" parent="1" source="y9hrB7B8DbRKpL7P-gth-34" target="y9hrB7B8DbRKpL7P-gth-35" edge="1">
          <mxGeometry width="80" relative="1" as="geometry">
            <mxPoint x="100" y="670" as="sourcePoint" />
            <mxPoint x="180" y="670" as="targetPoint" />
          </mxGeometry>
        </mxCell>
        <mxCell id="y9hrB7B8DbRKpL7P-gth-37" style="edgeStyle=orthogonalEdgeStyle;rounded=0;orthogonalLoop=1;jettySize=auto;html=1;exitX=0.5;exitY=1;exitDx=0;exitDy=0;" parent="1" source="y9hrB7B8DbRKpL7P-gth-3" target="y9hrB7B8DbRKpL7P-gth-3" edge="1">
          <mxGeometry relative="1" as="geometry" />
        </mxCell>
        <mxCell id="3zaD9dMvkfQn3Uvn-lBQ-4" value="Is already guide in complex tour?" style="rhombus;whiteSpace=wrap;html=1;fontSize=11;" parent="1" vertex="1">
          <mxGeometry x="280" y="410" width="160" height="160" as="geometry" />
        </mxCell>
        <mxCell id="3zaD9dMvkfQn3Uvn-lBQ-5" value="No" style="text;html=1;strokeColor=none;fillColor=none;align=center;verticalAlign=middle;whiteSpace=wrap;rounded=0;" parent="1" vertex="1">
          <mxGeometry x="380" y="590" width="60" height="30" as="geometry" />
        </mxCell>
        <mxCell id="3zaD9dMvkfQn3Uvn-lBQ-6" value="" style="html=1;verticalAlign=bottom;endArrow=block;edgeStyle=elbowEdgeStyle;elbow=vertical;curved=0;rounded=0;exitX=0.5;exitY=1;exitDx=0;exitDy=0;entryX=0.5;entryY=0;entryDx=0;entryDy=0;" parent="1" source="3zaD9dMvkfQn3Uvn-lBQ-4" target="y9hrB7B8DbRKpL7P-gth-19" edge="1">
          <mxGeometry width="80" relative="1" as="geometry">
            <mxPoint x="300" y="630" as="sourcePoint" />
            <mxPoint x="380" y="630" as="targetPoint" />
          </mxGeometry>
        </mxCell>
        <mxCell id="3zaD9dMvkfQn3Uvn-lBQ-7" value="Accept complex tour request" style="rounded=1;whiteSpace=wrap;html=1;" parent="1" vertex="1">
          <mxGeometry x="550" y="730" width="120" height="60" as="geometry" />
        </mxCell>
        <mxCell id="3zaD9dMvkfQn3Uvn-lBQ-8" value="" style="html=1;verticalAlign=bottom;endArrow=block;edgeStyle=elbowEdgeStyle;elbow=vertical;curved=0;rounded=0;exitX=0.5;exitY=1;exitDx=0;exitDy=0;entryX=0.5;entryY=0;entryDx=0;entryDy=0;" parent="1" source="y9hrB7B8DbRKpL7P-gth-29" target="3zaD9dMvkfQn3Uvn-lBQ-7" edge="1">
          <mxGeometry width="80" relative="1" as="geometry">
            <mxPoint x="620" y="720" as="sourcePoint" />
            <mxPoint x="700" y="720" as="targetPoint" />
          </mxGeometry>
        </mxCell>
        <mxCell id="3zaD9dMvkfQn3Uvn-lBQ-9" value="" style="html=1;verticalAlign=bottom;endArrow=block;edgeStyle=elbowEdgeStyle;elbow=vertical;curved=0;rounded=0;exitX=0.5;exitY=1;exitDx=0;exitDy=0;entryX=1.014;entryY=0.606;entryDx=0;entryDy=0;entryPerimeter=0;" parent="1" source="3zaD9dMvkfQn3Uvn-lBQ-7" target="y9hrB7B8DbRKpL7P-gth-31" edge="1">
          <mxGeometry width="80" relative="1" as="geometry">
            <mxPoint x="590" y="850" as="sourcePoint" />
            <mxPoint x="670" y="850" as="targetPoint" />
            <Array as="points">
              <mxPoint x="620" y="826" />
            </Array>
          </mxGeometry>
        </mxCell>
        <mxCell id="3zaD9dMvkfQn3Uvn-lBQ-10" value="" style="ellipse;html=1;shape=endState;fillColor=#000000;strokeColor=#ff0000;" parent="1" vertex="1">
          <mxGeometry x="260" y="380" width="30" height="30" as="geometry" />
        </mxCell>
        <mxCell id="3zaD9dMvkfQn3Uvn-lBQ-11" value="" style="html=1;verticalAlign=bottom;endArrow=block;edgeStyle=elbowEdgeStyle;elbow=vertical;curved=0;rounded=0;exitX=0;exitY=0.5;exitDx=0;exitDy=0;entryX=0.5;entryY=0;entryDx=0;entryDy=0;" parent="1" source="y9hrB7B8DbRKpL7P-gth-16" target="3zaD9dMvkfQn3Uvn-lBQ-10" edge="1">
          <mxGeometry width="80" relative="1" as="geometry">
            <mxPoint x="280" y="370" as="sourcePoint" />
            <mxPoint x="360" y="370" as="targetPoint" />
            <Array as="points">
              <mxPoint x="300" y="330" />
            </Array>
          </mxGeometry>
        </mxCell>
        <mxCell id="3zaD9dMvkfQn3Uvn-lBQ-12" value="" style="ellipse;html=1;shape=endState;fillColor=#000000;strokeColor=#ff0000;" parent="1" vertex="1">
          <mxGeometry x="250" y="580" width="30" height="30" as="geometry" />
        </mxCell>
        <mxCell id="3zaD9dMvkfQn3Uvn-lBQ-13" value="" style="html=1;verticalAlign=bottom;endArrow=block;edgeStyle=elbowEdgeStyle;elbow=vertical;curved=0;rounded=0;exitX=0;exitY=0.5;exitDx=0;exitDy=0;entryX=0.5;entryY=0;entryDx=0;entryDy=0;" parent="1" source="3zaD9dMvkfQn3Uvn-lBQ-4" target="3zaD9dMvkfQn3Uvn-lBQ-12" edge="1">
          <mxGeometry width="80" relative="1" as="geometry">
            <mxPoint x="260" y="530" as="sourcePoint" />
            <mxPoint x="340" y="530" as="targetPoint" />
            <Array as="points">
              <mxPoint x="270" y="490" />
            </Array>
          </mxGeometry>
        </mxCell>
      </root>
    </mxGraphModel>
  </diagram>
</mxfile>
